<svg xmlns="http://www.w3.org/2000/svg" xmlns:xlink="http://www.w3.org/1999/xlink" xmlns:lucid="lucid" width="843" height="689"><g transform="translate(-5678.499999991253 1041.500000007118)" lucid:page-tab-id="0_0"><path d="M5680-1034a6 6 0 0 1 6-6h828a6 6 0 0 1 6 6v674a6 6 0 0 1-6 6h-828a6 6 0 0 1-6-6z" stroke="#3a414a" stroke-width="3" fill="#fff"/><path d="M5680-983.5h840" stroke="#3a414a" stroke-width="3" fill="none"/><use xlink:href="#a" transform="matrix(1,0,0,1,5687.999999999997,-1032) translate(352.8187939453125 16.46212890625)"/><use xlink:href="#b" transform="matrix(1,0,0,1,5687.999999999997,-1032) translate(353.6688720703125 36.716875)"/><use xlink:href="#c" transform="matrix(1,0,0,1,5691.999999999997,-975.4905078125) translate(0 71.83333333333334)"/><use xlink:href="#d" transform="matrix(1,0,0,1,5691.999999999997,-975.4905078125) translate(22.962962962962965 71.83333333333334)"/><use xlink:href="#e" transform="matrix(1,0,0,1,5691.999999999997,-975.4905078125) translate(213.62962962962968 71.83333333333334)"/><use xlink:href="#c" transform="matrix(1,0,0,1,5691.999999999997,-975.4905078125) translate(0 103.83333333333334)"/><use xlink:href="#f" transform="matrix(1,0,0,1,5691.999999999997,-975.4905078125) translate(22.962962962962965 103.83333333333334)"/><use xlink:href="#g" transform="matrix(1,0,0,1,5691.999999999997,-975.4905078125) translate(224.14814814814818 103.83333333333334)"/><use xlink:href="#c" transform="matrix(1,0,0,1,5691.999999999997,-975.4905078125) translate(0 135.83333333333334)"/><use xlink:href="#h" transform="matrix(1,0,0,1,5691.999999999997,-975.4905078125) translate(22.962962962962965 135.83333333333334)"/><use xlink:href="#i" transform="matrix(1,0,0,1,5691.999999999997,-975.4905078125) translate(256.59259259259267 135.83333333333334)"/><use xlink:href="#c" transform="matrix(1,0,0,1,5691.999999999997,-975.4905078125) translate(0 167.83333333333334)"/><use xlink:href="#j" transform="matrix(1,0,0,1,5691.999999999997,-975.4905078125) translate(22.962962962962965 167.83333333333334)"/><use xlink:href="#i" transform="matrix(1,0,0,1,5691.999999999997,-975.4905078125) translate(206.29629629629633 167.83333333333334)"/><use xlink:href="#c" transform="matrix(1,0,0,1,5691.999999999997,-975.4905078125) translate(0 199.83333333333334)"/><use xlink:href="#k" transform="matrix(1,0,0,1,5691.999999999997,-975.4905078125) translate(22.962962962962965 199.83333333333334)"/><use xlink:href="#i" transform="matrix(1,0,0,1,5691.999999999997,-975.4905078125) translate(300.8888888888889 199.83333333333334)"/><use xlink:href="#c" transform="matrix(1,0,0,1,5691.999999999997,-975.4905078125) translate(0 231.83333333333334)"/><use xlink:href="#l" transform="matrix(1,0,0,1,5691.999999999997,-975.4905078125) translate(22.962962962962965 231.83333333333334)"/><use xlink:href="#i" transform="matrix(1,0,0,1,5691.999999999997,-975.4905078125) translate(250.59259259259264 231.83333333333334)"/><use xlink:href="#c" transform="matrix(1,0,0,1,5691.999999999997,-975.4905078125) translate(0 263.8333333333333)"/><use xlink:href="#m" transform="matrix(1,0,0,1,5691.999999999997,-975.4905078125) translate(22.962962962962965 263.8333333333333)"/><use xlink:href="#g" transform="matrix(1,0,0,1,5691.999999999997,-975.4905078125) translate(252.22222222222226 263.8333333333333)"/><use xlink:href="#c" transform="matrix(1,0,0,1,5691.999999999997,-975.4905078125) translate(0 295.8333333333333)"/><use xlink:href="#n" transform="matrix(1,0,0,1,5691.999999999997,-975.4905078125) translate(22.962962962962965 295.8333333333333)"/><use xlink:href="#i" transform="matrix(1,0,0,1,5691.999999999997,-975.4905078125) translate(252.22222222222226 295.8333333333333)"/><use xlink:href="#c" transform="matrix(1,0,0,1,5691.999999999997,-975.4905078125) translate(0 327.8333333333333)"/><use xlink:href="#o" transform="matrix(1,0,0,1,5691.999999999997,-975.4905078125) translate(22.962962962962965 327.8333333333333)"/><use xlink:href="#i" transform="matrix(1,0,0,1,5691.999999999997,-975.4905078125) translate(296.51851851851853 327.8333333333333)"/><use xlink:href="#c" transform="matrix(1,0,0,1,5691.999999999997,-975.4905078125) translate(0 359.8333333333333)"/><use xlink:href="#p" transform="matrix(1,0,0,1,5691.999999999997,-975.4905078125) translate(22.962962962962965 359.8333333333333)"/><use xlink:href="#i" transform="matrix(1,0,0,1,5691.999999999997,-975.4905078125) translate(303.925925925926 359.8333333333333)"/><use xlink:href="#c" transform="matrix(1,0,0,1,5691.999999999997,-975.4905078125) translate(0 391.8333333333333)"/><use xlink:href="#q" transform="matrix(1,0,0,1,5691.999999999997,-975.4905078125) translate(22.962962962962965 391.8333333333333)"/><use xlink:href="#r" transform="matrix(1,0,0,1,5691.999999999997,-975.4905078125) translate(363.2592592592593 391.8333333333333)"/><use xlink:href="#i" transform="matrix(1,0,0,1,5691.999999999997,-975.4905078125) translate(465.2592592592593 391.8333333333333)"/><use xlink:href="#c" transform="matrix(1,0,0,1,5691.999999999997,-975.4905078125) translate(0 423.8333333333333)"/><use xlink:href="#s" transform="matrix(1,0,0,1,5691.999999999997,-975.4905078125) translate(22.962962962962965 423.8333333333333)"/><use xlink:href="#e" transform="matrix(1,0,0,1,5691.999999999997,-975.4905078125) translate(301.03703703703707 423.8333333333333)"/><use xlink:href="#c" transform="matrix(1,0,0,1,5691.999999999997,-975.4905078125) translate(0 455.8333333333333)"/><use xlink:href="#t" transform="matrix(1,0,0,1,5691.999999999997,-975.4905078125) translate(22.962962962962965 455.8333333333333)"/><use xlink:href="#e" transform="matrix(1,0,0,1,5691.999999999997,-975.4905078125) translate(450.2222222222224 455.8333333333333)"/><use xlink:href="#c" transform="matrix(1,0,0,1,5691.999999999997,-975.4905078125) translate(0 487.8333333333333)"/><use xlink:href="#u" transform="matrix(1,0,0,1,5691.999999999997,-975.4905078125) translate(22.962962962962965 487.8333333333333)"/><use xlink:href="#e" transform="matrix(1,0,0,1,5691.999999999997,-975.4905078125) translate(448.9629629629631 487.8333333333333)"/><use xlink:href="#c" transform="matrix(1,0,0,1,5691.999999999997,-975.4905078125) translate(0 519.8333333333334)"/><use xlink:href="#v" transform="matrix(1,0,0,1,5691.999999999997,-975.4905078125) translate(22.962962962962965 519.8333333333334)"/><use xlink:href="#e" transform="matrix(1,0,0,1,5691.999999999997,-975.4905078125) translate(441.4814814814815 519.8333333333334)"/><use xlink:href="#c" transform="matrix(1,0,0,1,5691.999999999997,-975.4905078125) translate(0 551.8333333333334)"/><use xlink:href="#u" transform="matrix(1,0,0,1,5691.999999999997,-975.4905078125) translate(22.962962962962965 551.8333333333334)"/><use xlink:href="#w" transform="matrix(1,0,0,1,5691.999999999997,-975.4905078125) translate(448.9629629629631 551.8333333333334)"/><defs><path d="M166-471v-247l1019-454v289L492-601v13l693 282v287" id="x"/><path d="M128 0v-1118h300V0H128zm150-1264c-91 0-165-68-165-154 0-85 74-154 165-154 90 0 165 69 165 154 0 86-75 154-165 154" id="y"/><path d="M428-647V0H128v-1118h283l4 231c63-156 176-245 348-245 232 0 384 159 384 421V0H847v-659c0-139-76-222-202-222-128 0-217 86-217 234" id="z"/><path d="M683-1118v229H474v562c0 71 29 104 102 104 23 0 73-7 95-13l43 225C647 9 580 16 520 16 296 16 174-96 174-301v-588H20v-229h154v-266h300v266h209" id="A"/><path d="M633 22C291 22 81-200 81-553c0-345 210-579 537-579 292 0 525 185 525 567v84H378c7 183 109 277 260 277 105 0 184-46 216-132l272 51C1071-99 893 22 633 22zM380-669h474c-15-146-94-237-233-237-143 0-229 99-241 237" id="B"/><path d="M128 0v-1118h290v195h12c54-169 184-238 367-200v268c-27-8-86-15-130-15-138 0-239 95-239 234V0H128" id="C"/><path d="M750-1118v229H516V0H217v-889H20v-229h197v-86c0-238 156-356 363-356 94 0 178 20 215 31l-54 226c-25-7-61-15-100-15-123-3-131 84-125 200h234" id="D"/><path d="M440 22C227 22 68-92 68-313c0-250 202-322 422-343 195-21 271-24 271-105 0-95-63-149-175-149-116 0-187 57-211 129l-275-46c57-194 237-305 487-305 240 0 474 108 474 379V0H777v-155h-10C713-51 605 22 440 22zm85-211c140 0 238-93 238-211v-121c-37 26-156 42-222 51-111 16-185 59-185 149 0 87 70 132 169 132" id="E"/><path d="M628 22C291 22 81-210 81-554c0-346 210-578 547-578 265 0 455 142 497 372l-279 52c-25-116-99-188-215-188-160 0-244 139-244 341 0 200 84 341 244 341 116 0 193-74 217-195l279 51C1085-123 896 22 628 22" id="F"/><path d="M1224-471L205-19v-287l694-281v-14L205-883v-289l1019 454v247" id="G"/><g id="a"><use transform="matrix(0.008173828125000001,0,0,0.008173828125000001,0,0)" xlink:href="#x"/><use transform="matrix(0.008173828125000001,0,0,0.008173828125000001,11.361621093750001,0)" xlink:href="#x"/><use transform="matrix(0.008173828125000001,0,0,0.008173828125000001,22.723242187500002,0)" xlink:href="#y"/><use transform="matrix(0.008173828125000001,0,0,0.008173828125000001,27.259716796875004,0)" xlink:href="#z"/><use transform="matrix(0.008173828125000001,0,0,0.008173828125000001,37.681347656250004,0)" xlink:href="#A"/><use transform="matrix(0.008173828125000001,0,0,0.008173828125000001,43.6482421875,0)" xlink:href="#B"/><use transform="matrix(0.008173828125000001,0,0,0.008173828125000001,53.620312500000004,0)" xlink:href="#C"/><use transform="matrix(0.008173828125000001,0,0,0.008173828125000001,60.76423828125001,0)" xlink:href="#D"/><use transform="matrix(0.008173828125000001,0,0,0.008173828125000001,67.098955078125,0)" xlink:href="#E"/><use transform="matrix(0.008173828125000001,0,0,0.008173828125000001,76.81763671875001,0)" xlink:href="#F"/><use transform="matrix(0.008173828125000001,0,0,0.008173828125000001,86.66709960937501,0)" xlink:href="#B"/><use transform="matrix(0.008173828125000001,0,0,0.008173828125000001,96.63916992187501,0)" xlink:href="#G"/><use transform="matrix(0.008173828125000001,0,0,0.008173828125000001,108.00079101562501,0)" xlink:href="#G"/></g><path d="M659 0H135v-1490h529c448 0 721 280 721 744 0 466-273 746-726 746zM440-263h204c287 0 437-148 437-483 0-333-150-481-435-481H440v964" id="H"/><path d="M628 22C291 22 81-210 81-554c0-346 210-578 547-578 336 0 547 232 547 578 0 344-211 576-547 576zm0-236c160 0 242-146 242-341 0-197-82-341-242-341S387-753 387-555c0 195 81 341 241 341" id="I"/><path d="M681 22C323 22 94-145 85-462h297c10 151 131 226 296 226 163 0 271-77 271-190 0-102-95-149-257-189l-164-41c-252-61-403-188-403-405 0-269 236-449 560-449 330 0 546 183 551 445H941c-11-119-106-188-259-188-156 0-244 72-244 172-3 156 226 185 373 221 250 61 445 186 445 436 0 271-213 446-575 446" id="J"/><path d="M443 0L31-1118h319c90 293 199 572 268 885 66-313 175-593 264-885h315L784 0H443" id="K"/><g id="b"><use transform="matrix(0.008173828125000001,0,0,0.008173828125000001,0,0)" xlink:href="#H"/><use transform="matrix(0.008173828125000001,0,0,0.008173828125000001,12.089091796875001,0)" xlink:href="#I"/><use transform="matrix(0.008173828125000001,0,0,0.008173828125000001,22.355419921875004,0)" xlink:href="#F"/><use transform="matrix(0.008173828125000001,0,0,0.008173828125000001,32.2048828125,0)" xlink:href="#A"/><use transform="matrix(0.008173828125000001,0,0,0.008173828125000001,38.17177734375,0)" xlink:href="#I"/><use transform="matrix(0.008173828125000001,0,0,0.008173828125000001,48.43810546875,0)" xlink:href="#C"/><use transform="matrix(0.008173828125000001,0,0,0.008173828125000001,55.255078125000004,0)" xlink:href="#J"/><use transform="matrix(0.008173828125000001,0,0,0.008173828125000001,66.21618164062501,0)" xlink:href="#B"/><use transform="matrix(0.008173828125000001,0,0,0.008173828125000001,76.18825195312502,0)" xlink:href="#C"/><use transform="matrix(0.008173828125000001,0,0,0.008173828125000001,83.26678710937502,0)" xlink:href="#K"/><use transform="matrix(0.008173828125000001,0,0,0.008173828125000001,93.30424804687502,0)" xlink:href="#y"/><use transform="matrix(0.008173828125000001,0,0,0.008173828125000001,97.84072265625002,0)" xlink:href="#F"/><use transform="matrix(0.008173828125000001,0,0,0.008173828125000001,107.69018554687503,0)" xlink:href="#B"/></g><path d="M118-107v75H92v-75H18v-26h74v-75h26v75h74v26h-74" id="L"/><use transform="matrix(0.07407407407407408,0,0,0.07407407407407408,0,0)" xlink:href="#L" id="c"/><path d="M177-190C167-65 218 103 67 71c-23-6-38-20-44-43l32-5c15 47 100 32 89-28v-30C133-14 115 1 83 1 29 1 15-40 15-95c0-56 16-97 71-98 29-1 48 16 59 35 1-10 0-23 2-32h30zM94-22c36 0 50-32 50-73 0-42-14-75-50-75-39 0-46 34-46 75s6 73 46 73" id="M"/><path d="M100-194c63 0 86 42 84 106H49c0 40 14 67 53 68 26 1 43-12 49-29l28 8c-11 28-37 45-77 45C44 4 14-33 15-96c1-61 26-98 85-98zm52 81c6-60-76-77-97-28-3 7-6 17-6 28h103" id="N"/><path d="M59-47c-2 24 18 29 38 22v24C64 9 27 4 27-40v-127H5v-23h24l9-43h21v43h35v23H59v120" id="O"/><path d="M205 0l-28-72H64L36 0H1l101-248h38L239 0h-34zm-38-99l-47-123c-12 45-31 82-46 123h93" id="P"/><path d="M24 0v-261h32V0H24" id="Q"/><path d="M30-248c118-7 216 8 213 122C240-48 200 0 122 0H30v-248zM63-27c89 8 146-16 146-99s-60-101-146-95v194" id="R"/><path d="M100-194c62-1 85 37 85 99 1 63-27 99-86 99S16-35 15-95c0-66 28-99 85-99zM99-20c44 1 53-31 53-75 0-43-8-75-51-75s-53 32-53 75 10 74 51 75" id="S"/><path d="M96-169c-40 0-48 33-48 73s9 75 48 75c24 0 41-14 43-38l32 2c-6 37-31 61-74 61-59 0-76-41-82-99-10-93 101-131 147-64 4 7 5 14 7 22l-32 3c-4-21-16-35-41-35" id="T"/><path d="M114-163C36-179 61-72 57 0H25l-1-190h30c1 12-1 29 2 39 6-27 23-49 58-41v29" id="U"/><path d="M135-143c-3-34-86-38-87 0 15 53 115 12 119 90S17 21 10-45l28-5c4 36 97 45 98 0-10-56-113-15-118-90-4-57 82-63 122-42 12 7 21 19 24 35" id="V"/><path d="M87 75C49 33 22-17 22-94c0-76 28-126 65-167h31c-38 41-64 92-64 168S80 34 118 75H87" id="W"/><path d="M33-261c38 41 65 92 65 168S71 34 33 75H2C39 34 66-17 66-93S39-220 2-261h31" id="X"/><path d="M33-154v-36h34v36H33zM33 0v-36h34V0H33" id="Y"/><g id="d"><use transform="matrix(0.07407407407407408,0,0,0.07407407407407408,0,0)" xlink:href="#M"/><use transform="matrix(0.07407407407407408,0,0,0.07407407407407408,14.814814814814817,0)" xlink:href="#N"/><use transform="matrix(0.07407407407407408,0,0,0.07407407407407408,29.629629629629633,0)" xlink:href="#O"/><use transform="matrix(0.07407407407407408,0,0,0.07407407407407408,37.03703703703704,0)" xlink:href="#P"/><use transform="matrix(0.07407407407407408,0,0,0.07407407407407408,54.81481481481482,0)" xlink:href="#Q"/><use transform="matrix(0.07407407407407408,0,0,0.07407407407407408,60.66666666666667,0)" xlink:href="#Q"/><use transform="matrix(0.07407407407407408,0,0,0.07407407407407408,66.51851851851852,0)" xlink:href="#R"/><use transform="matrix(0.07407407407407408,0,0,0.07407407407407408,85.70370370370371,0)" xlink:href="#S"/><use transform="matrix(0.07407407407407408,0,0,0.07407407407407408,100.51851851851853,0)" xlink:href="#T"/><use transform="matrix(0.07407407407407408,0,0,0.07407407407407408,113.85185185185189,0)" xlink:href="#O"/><use transform="matrix(0.07407407407407408,0,0,0.07407407407407408,121.25925925925928,0)" xlink:href="#S"/><use transform="matrix(0.07407407407407408,0,0,0.07407407407407408,136.0740740740741,0)" xlink:href="#U"/><use transform="matrix(0.07407407407407408,0,0,0.07407407407407408,144.8888888888889,0)" xlink:href="#V"/><use transform="matrix(0.07407407407407408,0,0,0.07407407407407408,158.22222222222226,0)" xlink:href="#W"/><use transform="matrix(0.07407407407407408,0,0,0.07407407407407408,167.03703703703707,0)" xlink:href="#X"/><use transform="matrix(0.07407407407407408,0,0,0.07407407407407408,175.85185185185188,0)" xlink:href="#Y"/></g><path d="M30 0v-248h33v221h125V0H30" id="Z"/><path d="M24-231v-30h32v30H24zM24 0v-190h32V0H24" id="aa"/><path d="M18-100v-36l175-74v27L42-118l151 64v27" id="ab"/><path d="M18-27v-27l151-64-151-65v-27l175 74v36" id="ac"/><g id="e"><use transform="matrix(0.07407407407407408,0,0,0.07407407407407408,0,0)" xlink:href="#Z"/><use transform="matrix(0.07407407407407408,0,0,0.07407407407407408,14.814814814814817,0)" xlink:href="#aa"/><use transform="matrix(0.07407407407407408,0,0,0.07407407407407408,20.666666666666668,0)" xlink:href="#V"/><use transform="matrix(0.07407407407407408,0,0,0.07407407407407408,34.00000000000001,0)" xlink:href="#O"/><use transform="matrix(0.07407407407407408,0,0,0.07407407407407408,41.40740740740742,0)" xlink:href="#ab"/><use transform="matrix(0.07407407407407408,0,0,0.07407407407407408,56.962962962962976,0)" xlink:href="#R"/><use transform="matrix(0.07407407407407408,0,0,0.07407407407407408,76.14814814814815,0)" xlink:href="#S"/><use transform="matrix(0.07407407407407408,0,0,0.07407407407407408,90.96296296296299,0)" xlink:href="#T"/><use transform="matrix(0.07407407407407408,0,0,0.07407407407407408,104.29629629629633,0)" xlink:href="#O"/><use transform="matrix(0.07407407407407408,0,0,0.07407407407407408,111.70370370370374,0)" xlink:href="#S"/><use transform="matrix(0.07407407407407408,0,0,0.07407407407407408,126.51851851851858,0)" xlink:href="#U"/><use transform="matrix(0.07407407407407408,0,0,0.07407407407407408,135.33333333333337,0)" xlink:href="#ac"/></g><path d="M160-131c35 5 61 23 61 61C221 17 115-2 30 0v-248c76 3 177-17 177 60 0 33-19 50-47 57zm-97-11c50-1 110 9 110-42 0-47-63-36-110-37v79zm0 115c55-2 124 14 124-45 0-56-70-42-124-44v89" id="ad"/><path d="M179-190L93 31C79 59 56 82 12 73V49c39 6 53-20 64-50L1-190h34L92-34l54-156h33" id="ae"/><path d="M33 0v-248h34V0H33" id="af"/><path d="M85-194c31 0 48 13 60 33l-1-100h32l1 261h-30c-2-10 0-23-3-31C134-8 116 4 85 4 32 4 16-35 15-94c0-66 23-100 70-100zm9 24c-40 0-46 34-46 75 0 40 6 74 45 74 42 0 51-32 51-76 0-42-9-74-50-73" id="ag"/><g id="f"><use transform="matrix(0.07407407407407408,0,0,0.07407407407407408,0,0)" xlink:href="#M"/><use transform="matrix(0.07407407407407408,0,0,0.07407407407407408,14.814814814814817,0)" xlink:href="#N"/><use transform="matrix(0.07407407407407408,0,0,0.07407407407407408,29.629629629629633,0)" xlink:href="#O"/><use transform="matrix(0.07407407407407408,0,0,0.07407407407407408,37.03703703703704,0)" xlink:href="#R"/><use transform="matrix(0.07407407407407408,0,0,0.07407407407407408,56.22222222222223,0)" xlink:href="#S"/><use transform="matrix(0.07407407407407408,0,0,0.07407407407407408,71.03703703703704,0)" xlink:href="#T"/><use transform="matrix(0.07407407407407408,0,0,0.07407407407407408,84.37037037037038,0)" xlink:href="#O"/><use transform="matrix(0.07407407407407408,0,0,0.07407407407407408,91.77777777777779,0)" xlink:href="#S"/><use transform="matrix(0.07407407407407408,0,0,0.07407407407407408,106.59259259259261,0)" xlink:href="#U"/><use transform="matrix(0.07407407407407408,0,0,0.07407407407407408,115.40740740740742,0)" xlink:href="#ad"/><use transform="matrix(0.07407407407407408,0,0,0.07407407407407408,133.1851851851852,0)" xlink:href="#ae"/><use transform="matrix(0.07407407407407408,0,0,0.07407407407407408,146.51851851851853,0)" xlink:href="#af"/><use transform="matrix(0.07407407407407408,0,0,0.07407407407407408,153.92592592592595,0)" xlink:href="#ag"/><use transform="matrix(0.07407407407407408,0,0,0.07407407407407408,168.74074074074076,0)" xlink:href="#W"/><use transform="matrix(0.07407407407407408,0,0,0.07407407407407408,177.55555555555557,0)" xlink:href="#X"/><use transform="matrix(0.07407407407407408,0,0,0.07407407407407408,186.37037037037038,0)" xlink:href="#Y"/></g><path d="M140-251c81 0 123 46 123 126C263-46 219 4 140 4 59 4 17-45 17-125s42-126 123-126zm0 227c63 0 89-41 89-101s-29-99-89-99c-61 0-89 39-89 99S79-25 140-24" id="ah"/><path d="M115-194c55 1 70 41 70 98S169 2 115 4C84 4 66-9 55-30l1 105H24l-1-265h31l2 30c10-21 28-34 59-34zm-8 174c40 0 45-34 45-75s-6-73-45-74c-42 0-51 32-51 76 0 43 10 73 51 73" id="ai"/><path d="M117-194c89-4 53 116 60 194h-32v-121c0-31-8-49-39-48C34-167 62-67 57 0H25l-1-190h30c1 10-1 24 2 32 11-22 29-35 61-36" id="aj"/><path d="M141-36C126-15 110 5 73 4 37 3 15-17 15-53c-1-64 63-63 125-63 3-35-9-54-41-54-24 1-41 7-42 31l-33-3c5-37 33-52 76-52 45 0 72 20 72 64v82c-1 20 7 32 28 27v20c-31 9-61-2-59-35zM48-53c0 20 12 33 32 33 41-3 63-29 60-74-43 2-92-5-92 41" id="ak"/><g id="g"><use transform="matrix(0.07407407407407408,0,0,0.07407407407407408,0,0)" xlink:href="#ah"/><use transform="matrix(0.07407407407407408,0,0,0.07407407407407408,20.740740740740744,0)" xlink:href="#ai"/><use transform="matrix(0.07407407407407408,0,0,0.07407407407407408,35.55555555555556,0)" xlink:href="#O"/><use transform="matrix(0.07407407407407408,0,0,0.07407407407407408,42.96296296296296,0)" xlink:href="#aa"/><use transform="matrix(0.07407407407407408,0,0,0.07407407407407408,48.81481481481481,0)" xlink:href="#S"/><use transform="matrix(0.07407407407407408,0,0,0.07407407407407408,63.629629629629626,0)" xlink:href="#aj"/><use transform="matrix(0.07407407407407408,0,0,0.07407407407407408,78.44444444444446,0)" xlink:href="#ak"/><use transform="matrix(0.07407407407407408,0,0,0.07407407407407408,93.25925925925927,0)" xlink:href="#Q"/><use transform="matrix(0.07407407407407408,0,0,0.07407407407407408,99.11111111111111,0)" xlink:href="#ab"/><use transform="matrix(0.07407407407407408,0,0,0.07407407407407408,114.66666666666667,0)" xlink:href="#R"/><use transform="matrix(0.07407407407407408,0,0,0.07407407407407408,133.85185185185185,0)" xlink:href="#S"/><use transform="matrix(0.07407407407407408,0,0,0.07407407407407408,148.66666666666666,0)" xlink:href="#T"/><use transform="matrix(0.07407407407407408,0,0,0.07407407407407408,162,0)" xlink:href="#O"/><use transform="matrix(0.07407407407407408,0,0,0.07407407407407408,169.40740740740742,0)" xlink:href="#S"/><use transform="matrix(0.07407407407407408,0,0,0.07407407407407408,184.2222222222222,0)" xlink:href="#U"/><use transform="matrix(0.07407407407407408,0,0,0.07407407407407408,193.03703703703704,0)" xlink:href="#ac"/></g><g id="h"><use transform="matrix(0.07407407407407408,0,0,0.07407407407407408,0,0)" xlink:href="#ak"/><use transform="matrix(0.07407407407407408,0,0,0.07407407407407408,14.814814814814817,0)" xlink:href="#ag"/><use transform="matrix(0.07407407407407408,0,0,0.07407407407407408,29.629629629629633,0)" xlink:href="#ag"/><use transform="matrix(0.07407407407407408,0,0,0.07407407407407408,44.44444444444445,0)" xlink:href="#R"/><use transform="matrix(0.07407407407407408,0,0,0.07407407407407408,63.629629629629626,0)" xlink:href="#S"/><use transform="matrix(0.07407407407407408,0,0,0.07407407407407408,78.44444444444446,0)" xlink:href="#T"/><use transform="matrix(0.07407407407407408,0,0,0.07407407407407408,91.7777777777778,0)" xlink:href="#O"/><use transform="matrix(0.07407407407407408,0,0,0.07407407407407408,99.1851851851852,0)" xlink:href="#S"/><use transform="matrix(0.07407407407407408,0,0,0.07407407407407408,114.00000000000003,0)" xlink:href="#U"/><use transform="matrix(0.07407407407407408,0,0,0.07407407407407408,122.81481481481484,0)" xlink:href="#W"/><use transform="matrix(0.07407407407407408,0,0,0.07407407407407408,131.62962962962965,0)" xlink:href="#R"/><use transform="matrix(0.07407407407407408,0,0,0.07407407407407408,150.81481481481484,0)" xlink:href="#S"/><use transform="matrix(0.07407407407407408,0,0,0.07407407407407408,165.62962962962965,0)" xlink:href="#T"/><use transform="matrix(0.07407407407407408,0,0,0.07407407407407408,178.962962962963,0)" xlink:href="#O"/><use transform="matrix(0.07407407407407408,0,0,0.07407407407407408,186.37037037037038,0)" xlink:href="#S"/><use transform="matrix(0.07407407407407408,0,0,0.07407407407407408,201.18518518518522,0)" xlink:href="#U"/><use transform="matrix(0.07407407407407408,0,0,0.07407407407407408,210.00000000000003,0)" xlink:href="#X"/><use transform="matrix(0.07407407407407408,0,0,0.07407407407407408,218.81481481481484,0)" xlink:href="#Y"/></g><path d="M108 0H70L1-190h34L89-25l56-165h34" id="al"/><g id="i"><use transform="matrix(0.07407407407407408,0,0,0.07407407407407408,0,0)" xlink:href="#al"/><use transform="matrix(0.07407407407407408,0,0,0.07407407407407408,13.333333333333336,0)" xlink:href="#S"/><use transform="matrix(0.07407407407407408,0,0,0.07407407407407408,28.148148148148152,0)" xlink:href="#aa"/><use transform="matrix(0.07407407407407408,0,0,0.07407407407407408,34.00000000000001,0)" xlink:href="#ag"/></g><g id="j"><use transform="matrix(0.07407407407407408,0,0,0.07407407407407408,0,0)" xlink:href="#ak"/><use transform="matrix(0.07407407407407408,0,0,0.07407407407407408,14.814814814814817,0)" xlink:href="#ag"/><use transform="matrix(0.07407407407407408,0,0,0.07407407407407408,29.629629629629633,0)" xlink:href="#ag"/><use transform="matrix(0.07407407407407408,0,0,0.07407407407407408,44.44444444444445,0)" xlink:href="#R"/><use transform="matrix(0.07407407407407408,0,0,0.07407407407407408,63.629629629629626,0)" xlink:href="#S"/><use transform="matrix(0.07407407407407408,0,0,0.07407407407407408,78.44444444444446,0)" xlink:href="#T"/><use transform="matrix(0.07407407407407408,0,0,0.07407407407407408,91.7777777777778,0)" xlink:href="#O"/><use transform="matrix(0.07407407407407408,0,0,0.07407407407407408,99.1851851851852,0)" xlink:href="#S"/><use transform="matrix(0.07407407407407408,0,0,0.07407407407407408,114.00000000000003,0)" xlink:href="#U"/><use transform="matrix(0.07407407407407408,0,0,0.07407407407407408,122.81481481481484,0)" xlink:href="#W"/><use transform="matrix(0.07407407407407408,0,0,0.07407407407407408,131.62962962962965,0)" xlink:href="#aa"/><use transform="matrix(0.07407407407407408,0,0,0.07407407407407408,137.4814814814815,0)" xlink:href="#aj"/><use transform="matrix(0.07407407407407408,0,0,0.07407407407407408,152.2962962962963,0)" xlink:href="#O"/><use transform="matrix(0.07407407407407408,0,0,0.07407407407407408,159.70370370370372,0)" xlink:href="#X"/><use transform="matrix(0.07407407407407408,0,0,0.07407407407407408,168.51851851851853,0)" xlink:href="#Y"/></g><path d="M210-169c-67 3-38 105-44 169h-31v-121c0-29-5-50-35-48C34-165 62-65 56 0H25l-1-190h30c1 10-1 24 2 32 10-44 99-50 107 0 11-21 27-35 58-36 85-2 47 119 55 194h-31v-121c0-29-5-49-35-48" id="am"/><g id="k"><use transform="matrix(0.07407407407407408,0,0,0.07407407407407408,0,0)" xlink:href="#U"/><use transform="matrix(0.07407407407407408,0,0,0.07407407407407408,8.814814814814817,0)" xlink:href="#N"/><use transform="matrix(0.07407407407407408,0,0,0.07407407407407408,23.629629629629633,0)" xlink:href="#am"/><use transform="matrix(0.07407407407407408,0,0,0.07407407407407408,45.777777777777786,0)" xlink:href="#S"/><use transform="matrix(0.07407407407407408,0,0,0.07407407407407408,60.5925925925926,0)" xlink:href="#al"/><use transform="matrix(0.07407407407407408,0,0,0.07407407407407408,73.92592592592594,0)" xlink:href="#N"/><use transform="matrix(0.07407407407407408,0,0,0.07407407407407408,88.74074074074078,0)" xlink:href="#R"/><use transform="matrix(0.07407407407407408,0,0,0.07407407407407408,107.92592592592595,0)" xlink:href="#S"/><use transform="matrix(0.07407407407407408,0,0,0.07407407407407408,122.74074074074076,0)" xlink:href="#T"/><use transform="matrix(0.07407407407407408,0,0,0.07407407407407408,136.0740740740741,0)" xlink:href="#O"/><use transform="matrix(0.07407407407407408,0,0,0.07407407407407408,143.48148148148152,0)" xlink:href="#S"/><use transform="matrix(0.07407407407407408,0,0,0.07407407407407408,158.2962962962963,0)" xlink:href="#U"/><use transform="matrix(0.07407407407407408,0,0,0.07407407407407408,167.11111111111114,0)" xlink:href="#W"/><use transform="matrix(0.07407407407407408,0,0,0.07407407407407408,175.92592592592595,0)" xlink:href="#R"/><use transform="matrix(0.07407407407407408,0,0,0.07407407407407408,195.11111111111114,0)" xlink:href="#S"/><use transform="matrix(0.07407407407407408,0,0,0.07407407407407408,209.92592592592595,0)" xlink:href="#T"/><use transform="matrix(0.07407407407407408,0,0,0.07407407407407408,223.2592592592593,0)" xlink:href="#O"/><use transform="matrix(0.07407407407407408,0,0,0.07407407407407408,230.66666666666674,0)" xlink:href="#S"/><use transform="matrix(0.07407407407407408,0,0,0.07407407407407408,245.48148148148152,0)" xlink:href="#U"/><use transform="matrix(0.07407407407407408,0,0,0.07407407407407408,254.29629629629633,0)" xlink:href="#X"/><use transform="matrix(0.07407407407407408,0,0,0.07407407407407408,263.11111111111114,0)" xlink:href="#Y"/></g><g id="l"><use transform="matrix(0.07407407407407408,0,0,0.07407407407407408,0,0)" xlink:href="#U"/><use transform="matrix(0.07407407407407408,0,0,0.07407407407407408,8.814814814814817,0)" xlink:href="#N"/><use transform="matrix(0.07407407407407408,0,0,0.07407407407407408,23.629629629629633,0)" xlink:href="#am"/><use transform="matrix(0.07407407407407408,0,0,0.07407407407407408,45.777777777777786,0)" xlink:href="#S"/><use transform="matrix(0.07407407407407408,0,0,0.07407407407407408,60.5925925925926,0)" xlink:href="#al"/><use transform="matrix(0.07407407407407408,0,0,0.07407407407407408,73.92592592592594,0)" xlink:href="#N"/><use transform="matrix(0.07407407407407408,0,0,0.07407407407407408,88.74074074074078,0)" xlink:href="#R"/><use transform="matrix(0.07407407407407408,0,0,0.07407407407407408,107.92592592592595,0)" xlink:href="#S"/><use transform="matrix(0.07407407407407408,0,0,0.07407407407407408,122.74074074074076,0)" xlink:href="#T"/><use transform="matrix(0.07407407407407408,0,0,0.07407407407407408,136.0740740740741,0)" xlink:href="#O"/><use transform="matrix(0.07407407407407408,0,0,0.07407407407407408,143.48148148148152,0)" xlink:href="#S"/><use transform="matrix(0.07407407407407408,0,0,0.07407407407407408,158.2962962962963,0)" xlink:href="#U"/><use transform="matrix(0.07407407407407408,0,0,0.07407407407407408,167.11111111111114,0)" xlink:href="#W"/><use transform="matrix(0.07407407407407408,0,0,0.07407407407407408,175.92592592592595,0)" xlink:href="#aa"/><use transform="matrix(0.07407407407407408,0,0,0.07407407407407408,181.7777777777778,0)" xlink:href="#aj"/><use transform="matrix(0.07407407407407408,0,0,0.07407407407407408,196.5925925925926,0)" xlink:href="#O"/><use transform="matrix(0.07407407407407408,0,0,0.07407407407407408,204.00000000000003,0)" xlink:href="#X"/><use transform="matrix(0.07407407407407408,0,0,0.07407407407407408,212.81481481481484,0)" xlink:href="#Y"/></g><g id="m"><use transform="matrix(0.07407407407407408,0,0,0.07407407407407408,0,0)" xlink:href="#M"/><use transform="matrix(0.07407407407407408,0,0,0.07407407407407408,14.814814814814817,0)" xlink:href="#N"/><use transform="matrix(0.07407407407407408,0,0,0.07407407407407408,29.629629629629633,0)" xlink:href="#O"/><use transform="matrix(0.07407407407407408,0,0,0.07407407407407408,37.03703703703704,0)" xlink:href="#R"/><use transform="matrix(0.07407407407407408,0,0,0.07407407407407408,56.22222222222223,0)" xlink:href="#S"/><use transform="matrix(0.07407407407407408,0,0,0.07407407407407408,71.03703703703704,0)" xlink:href="#T"/><use transform="matrix(0.07407407407407408,0,0,0.07407407407407408,84.37037037037038,0)" xlink:href="#O"/><use transform="matrix(0.07407407407407408,0,0,0.07407407407407408,91.77777777777779,0)" xlink:href="#S"/><use transform="matrix(0.07407407407407408,0,0,0.07407407407407408,106.59259259259261,0)" xlink:href="#U"/><use transform="matrix(0.07407407407407408,0,0,0.07407407407407408,115.40740740740742,0)" xlink:href="#ad"/><use transform="matrix(0.07407407407407408,0,0,0.07407407407407408,133.1851851851852,0)" xlink:href="#ae"/><use transform="matrix(0.07407407407407408,0,0,0.07407407407407408,146.51851851851853,0)" xlink:href="#af"/><use transform="matrix(0.07407407407407408,0,0,0.07407407407407408,153.92592592592595,0)" xlink:href="#ag"/><use transform="matrix(0.07407407407407408,0,0,0.07407407407407408,168.74074074074076,0)" xlink:href="#W"/><use transform="matrix(0.07407407407407408,0,0,0.07407407407407408,177.55555555555557,0)" xlink:href="#aa"/><use transform="matrix(0.07407407407407408,0,0,0.07407407407407408,183.40740740740742,0)" xlink:href="#aj"/><use transform="matrix(0.07407407407407408,0,0,0.07407407407407408,198.22222222222223,0)" xlink:href="#O"/><use transform="matrix(0.07407407407407408,0,0,0.07407407407407408,205.62962962962965,0)" xlink:href="#X"/><use transform="matrix(0.07407407407407408,0,0,0.07407407407407408,214.44444444444449,0)" xlink:href="#Y"/></g><g id="n"><use transform="matrix(0.07407407407407408,0,0,0.07407407407407408,0,0)" xlink:href="#ak"/><use transform="matrix(0.07407407407407408,0,0,0.07407407407407408,14.814814814814817,0)" xlink:href="#ag"/><use transform="matrix(0.07407407407407408,0,0,0.07407407407407408,29.629629629629633,0)" xlink:href="#ag"/><use transform="matrix(0.07407407407407408,0,0,0.07407407407407408,44.44444444444445,0)" xlink:href="#R"/><use transform="matrix(0.07407407407407408,0,0,0.07407407407407408,63.629629629629626,0)" xlink:href="#S"/><use transform="matrix(0.07407407407407408,0,0,0.07407407407407408,78.44444444444446,0)" xlink:href="#T"/><use transform="matrix(0.07407407407407408,0,0,0.07407407407407408,91.7777777777778,0)" xlink:href="#O"/><use transform="matrix(0.07407407407407408,0,0,0.07407407407407408,99.1851851851852,0)" xlink:href="#S"/><use transform="matrix(0.07407407407407408,0,0,0.07407407407407408,114.00000000000003,0)" xlink:href="#U"/><use transform="matrix(0.07407407407407408,0,0,0.07407407407407408,122.81481481481484,0)" xlink:href="#W"/><use transform="matrix(0.07407407407407408,0,0,0.07407407407407408,131.62962962962965,0)" xlink:href="#ag"/><use transform="matrix(0.07407407407407408,0,0,0.07407407407407408,146.44444444444446,0)" xlink:href="#S"/><use transform="matrix(0.07407407407407408,0,0,0.07407407407407408,161.25925925925927,0)" xlink:href="#T"/><use transform="matrix(0.07407407407407408,0,0,0.07407407407407408,174.5925925925926,0)" xlink:href="#O"/><use transform="matrix(0.07407407407407408,0,0,0.07407407407407408,182.00000000000003,0)" xlink:href="#S"/><use transform="matrix(0.07407407407407408,0,0,0.07407407407407408,196.81481481481484,0)" xlink:href="#U"/><use transform="matrix(0.07407407407407408,0,0,0.07407407407407408,205.62962962962965,0)" xlink:href="#X"/><use transform="matrix(0.07407407407407408,0,0,0.07407407407407408,214.44444444444449,0)" xlink:href="#Y"/></g><g id="o"><use transform="matrix(0.07407407407407408,0,0,0.07407407407407408,0,0)" xlink:href="#U"/><use transform="matrix(0.07407407407407408,0,0,0.07407407407407408,8.814814814814817,0)" xlink:href="#N"/><use transform="matrix(0.07407407407407408,0,0,0.07407407407407408,23.629629629629633,0)" xlink:href="#am"/><use transform="matrix(0.07407407407407408,0,0,0.07407407407407408,45.777777777777786,0)" xlink:href="#S"/><use transform="matrix(0.07407407407407408,0,0,0.07407407407407408,60.5925925925926,0)" xlink:href="#al"/><use transform="matrix(0.07407407407407408,0,0,0.07407407407407408,73.92592592592594,0)" xlink:href="#N"/><use transform="matrix(0.07407407407407408,0,0,0.07407407407407408,88.74074074074078,0)" xlink:href="#R"/><use transform="matrix(0.07407407407407408,0,0,0.07407407407407408,107.92592592592595,0)" xlink:href="#S"/><use transform="matrix(0.07407407407407408,0,0,0.07407407407407408,122.74074074074076,0)" xlink:href="#T"/><use transform="matrix(0.07407407407407408,0,0,0.07407407407407408,136.0740740740741,0)" xlink:href="#O"/><use transform="matrix(0.07407407407407408,0,0,0.07407407407407408,143.48148148148152,0)" xlink:href="#S"/><use transform="matrix(0.07407407407407408,0,0,0.07407407407407408,158.2962962962963,0)" xlink:href="#U"/><use transform="matrix(0.07407407407407408,0,0,0.07407407407407408,167.11111111111114,0)" xlink:href="#W"/><use transform="matrix(0.07407407407407408,0,0,0.07407407407407408,175.92592592592595,0)" xlink:href="#ag"/><use transform="matrix(0.07407407407407408,0,0,0.07407407407407408,190.74074074074076,0)" xlink:href="#S"/><use transform="matrix(0.07407407407407408,0,0,0.07407407407407408,205.55555555555557,0)" xlink:href="#T"/><use transform="matrix(0.07407407407407408,0,0,0.07407407407407408,218.8888888888889,0)" xlink:href="#O"/><use transform="matrix(0.07407407407407408,0,0,0.07407407407407408,226.29629629629633,0)" xlink:href="#S"/><use transform="matrix(0.07407407407407408,0,0,0.07407407407407408,241.11111111111114,0)" xlink:href="#U"/><use transform="matrix(0.07407407407407408,0,0,0.07407407407407408,249.92592592592595,0)" xlink:href="#X"/><use transform="matrix(0.07407407407407408,0,0,0.07407407407407408,258.74074074074076,0)" xlink:href="#Y"/></g><g id="p"><use transform="matrix(0.07407407407407408,0,0,0.07407407407407408,0,0)" xlink:href="#U"/><use transform="matrix(0.07407407407407408,0,0,0.07407407407407408,8.814814814814817,0)" xlink:href="#N"/><use transform="matrix(0.07407407407407408,0,0,0.07407407407407408,23.629629629629633,0)" xlink:href="#am"/><use transform="matrix(0.07407407407407408,0,0,0.07407407407407408,45.777777777777786,0)" xlink:href="#S"/><use transform="matrix(0.07407407407407408,0,0,0.07407407407407408,60.5925925925926,0)" xlink:href="#al"/><use transform="matrix(0.07407407407407408,0,0,0.07407407407407408,73.92592592592594,0)" xlink:href="#N"/><use transform="matrix(0.07407407407407408,0,0,0.07407407407407408,88.74074074074078,0)" xlink:href="#R"/><use transform="matrix(0.07407407407407408,0,0,0.07407407407407408,107.92592592592595,0)" xlink:href="#S"/><use transform="matrix(0.07407407407407408,0,0,0.07407407407407408,122.74074074074076,0)" xlink:href="#T"/><use transform="matrix(0.07407407407407408,0,0,0.07407407407407408,136.0740740740741,0)" xlink:href="#O"/><use transform="matrix(0.07407407407407408,0,0,0.07407407407407408,143.48148148148152,0)" xlink:href="#S"/><use transform="matrix(0.07407407407407408,0,0,0.07407407407407408,158.2962962962963,0)" xlink:href="#U"/><use transform="matrix(0.07407407407407408,0,0,0.07407407407407408,167.11111111111114,0)" xlink:href="#ad"/><use transform="matrix(0.07407407407407408,0,0,0.07407407407407408,184.8888888888889,0)" xlink:href="#ae"/><use transform="matrix(0.07407407407407408,0,0,0.07407407407407408,198.22222222222226,0)" xlink:href="#af"/><use transform="matrix(0.07407407407407408,0,0,0.07407407407407408,205.6296296296297,0)" xlink:href="#ag"/><use transform="matrix(0.07407407407407408,0,0,0.07407407407407408,220.44444444444449,0)" xlink:href="#W"/><use transform="matrix(0.07407407407407408,0,0,0.07407407407407408,229.2592592592593,0)" xlink:href="#aa"/><use transform="matrix(0.07407407407407408,0,0,0.07407407407407408,235.11111111111114,0)" xlink:href="#aj"/><use transform="matrix(0.07407407407407408,0,0,0.07407407407407408,249.92592592592595,0)" xlink:href="#O"/><use transform="matrix(0.07407407407407408,0,0,0.07407407407407408,257.33333333333337,0)" xlink:href="#X"/><use transform="matrix(0.07407407407407408,0,0,0.07407407407407408,266.1481481481482,0)" xlink:href="#Y"/></g><path d="M30-248c87 1 191-15 191 75 0 78-77 80-158 76V0H30v-248zm33 125c57 0 124 11 124-50 0-59-68-47-124-48v98" id="an"/><path d="M127-220V0H93v-220H8v-28h204v28h-85" id="ao"/><path d="M68-38c1 34 0 65-14 84H32c9-13 17-26 17-46H33v-38h35" id="ap"/><g id="q"><use transform="matrix(0.07407407407407408,0,0,0.07407407407407408,0,0)" xlink:href="#ak"/><use transform="matrix(0.07407407407407408,0,0,0.07407407407407408,14.814814814814817,0)" xlink:href="#ag"/><use transform="matrix(0.07407407407407408,0,0,0.07407407407407408,29.629629629629633,0)" xlink:href="#ag"/><use transform="matrix(0.07407407407407408,0,0,0.07407407407407408,44.44444444444445,0)" xlink:href="#an"/><use transform="matrix(0.07407407407407408,0,0,0.07407407407407408,62.22222222222223,0)" xlink:href="#ak"/><use transform="matrix(0.07407407407407408,0,0,0.07407407407407408,77.03703703703702,0)" xlink:href="#O"/><use transform="matrix(0.07407407407407408,0,0,0.07407407407407408,84.44444444444444,0)" xlink:href="#aa"/><use transform="matrix(0.07407407407407408,0,0,0.07407407407407408,90.29629629629629,0)" xlink:href="#N"/><use transform="matrix(0.07407407407407408,0,0,0.07407407407407408,105.11111111111111,0)" xlink:href="#aj"/><use transform="matrix(0.07407407407407408,0,0,0.07407407407407408,119.92592592592592,0)" xlink:href="#O"/><use transform="matrix(0.07407407407407408,0,0,0.07407407407407408,127.33333333333333,0)" xlink:href="#ao"/><use transform="matrix(0.07407407407407408,0,0,0.07407407407407408,140.59259259259258,0)" xlink:href="#S"/><use transform="matrix(0.07407407407407408,0,0,0.07407407407407408,155.4074074074074,0)" xlink:href="#R"/><use transform="matrix(0.07407407407407408,0,0,0.07407407407407408,174.59259259259258,0)" xlink:href="#S"/><use transform="matrix(0.07407407407407408,0,0,0.07407407407407408,189.4074074074074,0)" xlink:href="#T"/><use transform="matrix(0.07407407407407408,0,0,0.07407407407407408,202.74074074074073,0)" xlink:href="#O"/><use transform="matrix(0.07407407407407408,0,0,0.07407407407407408,210.14814814814815,0)" xlink:href="#S"/><use transform="matrix(0.07407407407407408,0,0,0.07407407407407408,224.96296296296296,0)" xlink:href="#U"/><use transform="matrix(0.07407407407407408,0,0,0.07407407407407408,233.77777777777777,0)" xlink:href="#W"/><use transform="matrix(0.07407407407407408,0,0,0.07407407407407408,242.59259259259258,0)" xlink:href="#an"/><use transform="matrix(0.07407407407407408,0,0,0.07407407407407408,260.3703703703704,0)" xlink:href="#ak"/><use transform="matrix(0.07407407407407408,0,0,0.07407407407407408,275.1851851851852,0)" xlink:href="#O"/><use transform="matrix(0.07407407407407408,0,0,0.07407407407407408,282.5925925925926,0)" xlink:href="#aa"/><use transform="matrix(0.07407407407407408,0,0,0.07407407407407408,288.44444444444446,0)" xlink:href="#N"/><use transform="matrix(0.07407407407407408,0,0,0.07407407407407408,303.2592592592593,0)" xlink:href="#aj"/><use transform="matrix(0.07407407407407408,0,0,0.07407407407407408,318.07407407407413,0)" xlink:href="#O"/><use transform="matrix(0.07407407407407408,0,0,0.07407407407407408,325.4814814814815,0)" xlink:href="#ap"/></g><g id="r"><use transform="matrix(0.07407407407407408,0,0,0.07407407407407408,0,0)" xlink:href="#R"/><use transform="matrix(0.07407407407407408,0,0,0.07407407407407408,19.185185185185187,0)" xlink:href="#S"/><use transform="matrix(0.07407407407407408,0,0,0.07407407407407408,34,0)" xlink:href="#T"/><use transform="matrix(0.07407407407407408,0,0,0.07407407407407408,47.33333333333334,0)" xlink:href="#O"/><use transform="matrix(0.07407407407407408,0,0,0.07407407407407408,54.74074074074075,0)" xlink:href="#S"/><use transform="matrix(0.07407407407407408,0,0,0.07407407407407408,69.55555555555557,0)" xlink:href="#U"/><use transform="matrix(0.07407407407407408,0,0,0.07407407407407408,78.37037037037038,0)" xlink:href="#X"/><use transform="matrix(0.07407407407407408,0,0,0.07407407407407408,87.18518518518519,0)" xlink:href="#Y"/></g><path d="M106-169C34-169 62-67 57 0H25v-261h32l-1 103c12-21 28-36 61-36 89 0 53 116 60 194h-32v-121c2-32-8-49-39-48" id="aq"/><g id="s"><use transform="matrix(0.07407407407407408,0,0,0.07407407407407408,0,0)" xlink:href="#V"/><use transform="matrix(0.07407407407407408,0,0,0.07407407407407408,13.333333333333336,0)" xlink:href="#N"/><use transform="matrix(0.07407407407407408,0,0,0.07407407407407408,28.148148148148152,0)" xlink:href="#ak"/><use transform="matrix(0.07407407407407408,0,0,0.07407407407407408,42.96296296296297,0)" xlink:href="#U"/><use transform="matrix(0.07407407407407408,0,0,0.07407407407407408,51.777777777777786,0)" xlink:href="#T"/><use transform="matrix(0.07407407407407408,0,0,0.07407407407407408,65.11111111111111,0)" xlink:href="#aq"/><use transform="matrix(0.07407407407407408,0,0,0.07407407407407408,79.92592592592592,0)" xlink:href="#R"/><use transform="matrix(0.07407407407407408,0,0,0.07407407407407408,99.11111111111111,0)" xlink:href="#S"/><use transform="matrix(0.07407407407407408,0,0,0.07407407407407408,113.92592592592592,0)" xlink:href="#T"/><use transform="matrix(0.07407407407407408,0,0,0.07407407407407408,127.25925925925925,0)" xlink:href="#O"/><use transform="matrix(0.07407407407407408,0,0,0.07407407407407408,134.66666666666669,0)" xlink:href="#S"/><use transform="matrix(0.07407407407407408,0,0,0.07407407407407408,149.4814814814815,0)" xlink:href="#U"/><use transform="matrix(0.07407407407407408,0,0,0.07407407407407408,158.2962962962963,0)" xlink:href="#V"/><use transform="matrix(0.07407407407407408,0,0,0.07407407407407408,171.62962962962965,0)" xlink:href="#ad"/><use transform="matrix(0.07407407407407408,0,0,0.07407407407407408,189.40740740740742,0)" xlink:href="#ae"/><use transform="matrix(0.07407407407407408,0,0,0.07407407407407408,202.74074074074076,0)" xlink:href="#af"/><use transform="matrix(0.07407407407407408,0,0,0.07407407407407408,210.14814814814818,0)" xlink:href="#ag"/><use transform="matrix(0.07407407407407408,0,0,0.07407407407407408,224.962962962963,0)" xlink:href="#W"/><use transform="matrix(0.07407407407407408,0,0,0.07407407407407408,233.7777777777778,0)" xlink:href="#aa"/><use transform="matrix(0.07407407407407408,0,0,0.07407407407407408,239.62962962962965,0)" xlink:href="#ag"/><use transform="matrix(0.07407407407407408,0,0,0.07407407407407408,254.44444444444446,0)" xlink:href="#X"/><use transform="matrix(0.07407407407407408,0,0,0.07407407407407408,263.2592592592593,0)" xlink:href="#Y"/></g><path d="M63-220v92h138v28H63V0H30v-248h175v28H63" id="ar"/><path d="M190 0L58-211 59 0H30v-248h39L202-35l-2-213h31V0h-41" id="as"/><path d="M185-189c-5-48-123-54-124 2 14 75 158 14 163 119 3 78-121 87-175 55-17-10-28-26-33-46l33-7c5 56 141 63 141-1 0-78-155-14-162-118-5-82 145-84 179-34 5 7 8 16 11 25" id="at"/><g id="t"><use transform="matrix(0.07407407407407408,0,0,0.07407407407407408,0,0)" xlink:href="#V"/><use transform="matrix(0.07407407407407408,0,0,0.07407407407407408,13.333333333333336,0)" xlink:href="#N"/><use transform="matrix(0.07407407407407408,0,0,0.07407407407407408,28.148148148148152,0)" xlink:href="#ak"/><use transform="matrix(0.07407407407407408,0,0,0.07407407407407408,42.96296296296297,0)" xlink:href="#U"/><use transform="matrix(0.07407407407407408,0,0,0.07407407407407408,51.777777777777786,0)" xlink:href="#T"/><use transform="matrix(0.07407407407407408,0,0,0.07407407407407408,65.11111111111111,0)" xlink:href="#aq"/><use transform="matrix(0.07407407407407408,0,0,0.07407407407407408,79.92592592592592,0)" xlink:href="#R"/><use transform="matrix(0.07407407407407408,0,0,0.07407407407407408,99.11111111111111,0)" xlink:href="#S"/><use transform="matrix(0.07407407407407408,0,0,0.07407407407407408,113.92592592592592,0)" xlink:href="#T"/><use transform="matrix(0.07407407407407408,0,0,0.07407407407407408,127.25925925925925,0)" xlink:href="#O"/><use transform="matrix(0.07407407407407408,0,0,0.07407407407407408,134.66666666666669,0)" xlink:href="#S"/><use transform="matrix(0.07407407407407408,0,0,0.07407407407407408,149.4814814814815,0)" xlink:href="#U"/><use transform="matrix(0.07407407407407408,0,0,0.07407407407407408,158.2962962962963,0)" xlink:href="#V"/><use transform="matrix(0.07407407407407408,0,0,0.07407407407407408,171.62962962962965,0)" xlink:href="#ad"/><use transform="matrix(0.07407407407407408,0,0,0.07407407407407408,189.40740740740742,0)" xlink:href="#ae"/><use transform="matrix(0.07407407407407408,0,0,0.07407407407407408,202.74074074074076,0)" xlink:href="#ar"/><use transform="matrix(0.07407407407407408,0,0,0.07407407407407408,218.962962962963,0)" xlink:href="#aa"/><use transform="matrix(0.07407407407407408,0,0,0.07407407407407408,224.81481481481484,0)" xlink:href="#U"/><use transform="matrix(0.07407407407407408,0,0,0.07407407407407408,233.62962962962965,0)" xlink:href="#V"/><use transform="matrix(0.07407407407407408,0,0,0.07407407407407408,246.962962962963,0)" xlink:href="#O"/><use transform="matrix(0.07407407407407408,0,0,0.07407407407407408,254.3703703703704,0)" xlink:href="#as"/><use transform="matrix(0.07407407407407408,0,0,0.07407407407407408,273.5555555555556,0)" xlink:href="#ak"/><use transform="matrix(0.07407407407407408,0,0,0.07407407407407408,288.37037037037044,0)" xlink:href="#am"/><use transform="matrix(0.07407407407407408,0,0,0.07407407407407408,310.51851851851853,0)" xlink:href="#N"/><use transform="matrix(0.07407407407407408,0,0,0.07407407407407408,325.3333333333334,0)" xlink:href="#W"/><use transform="matrix(0.07407407407407408,0,0,0.07407407407407408,334.14814814814827,0)" xlink:href="#at"/><use transform="matrix(0.07407407407407408,0,0,0.07407407407407408,351.92592592592604,0)" xlink:href="#O"/><use transform="matrix(0.07407407407407408,0,0,0.07407407407407408,359.3333333333334,0)" xlink:href="#U"/><use transform="matrix(0.07407407407407408,0,0,0.07407407407407408,368.14814814814827,0)" xlink:href="#aa"/><use transform="matrix(0.07407407407407408,0,0,0.07407407407407408,374.0000000000001,0)" xlink:href="#aj"/><use transform="matrix(0.07407407407407408,0,0,0.07407407407407408,388.81481481481495,0)" xlink:href="#M"/><use transform="matrix(0.07407407407407408,0,0,0.07407407407407408,403.6296296296298,0)" xlink:href="#X"/><use transform="matrix(0.07407407407407408,0,0,0.07407407407407408,412.4444444444446,0)" xlink:href="#Y"/></g><g id="u"><use transform="matrix(0.07407407407407408,0,0,0.07407407407407408,0,0)" xlink:href="#V"/><use transform="matrix(0.07407407407407408,0,0,0.07407407407407408,13.333333333333336,0)" xlink:href="#N"/><use transform="matrix(0.07407407407407408,0,0,0.07407407407407408,28.148148148148152,0)" xlink:href="#ak"/><use transform="matrix(0.07407407407407408,0,0,0.07407407407407408,42.96296296296297,0)" xlink:href="#U"/><use transform="matrix(0.07407407407407408,0,0,0.07407407407407408,51.777777777777786,0)" xlink:href="#T"/><use transform="matrix(0.07407407407407408,0,0,0.07407407407407408,65.11111111111111,0)" xlink:href="#aq"/><use transform="matrix(0.07407407407407408,0,0,0.07407407407407408,79.92592592592592,0)" xlink:href="#R"/><use transform="matrix(0.07407407407407408,0,0,0.07407407407407408,99.11111111111111,0)" xlink:href="#S"/><use transform="matrix(0.07407407407407408,0,0,0.07407407407407408,113.92592592592592,0)" xlink:href="#T"/><use transform="matrix(0.07407407407407408,0,0,0.07407407407407408,127.25925925925925,0)" xlink:href="#O"/><use transform="matrix(0.07407407407407408,0,0,0.07407407407407408,134.66666666666669,0)" xlink:href="#S"/><use transform="matrix(0.07407407407407408,0,0,0.07407407407407408,149.4814814814815,0)" xlink:href="#U"/><use transform="matrix(0.07407407407407408,0,0,0.07407407407407408,158.2962962962963,0)" xlink:href="#V"/><use transform="matrix(0.07407407407407408,0,0,0.07407407407407408,171.62962962962965,0)" xlink:href="#ad"/><use transform="matrix(0.07407407407407408,0,0,0.07407407407407408,189.40740740740742,0)" xlink:href="#ae"/><use transform="matrix(0.07407407407407408,0,0,0.07407407407407408,202.74074074074076,0)" xlink:href="#Z"/><use transform="matrix(0.07407407407407408,0,0,0.07407407407407408,217.55555555555557,0)" xlink:href="#ak"/><use transform="matrix(0.07407407407407408,0,0,0.07407407407407408,232.37037037037038,0)" xlink:href="#V"/><use transform="matrix(0.07407407407407408,0,0,0.07407407407407408,245.70370370370372,0)" xlink:href="#O"/><use transform="matrix(0.07407407407407408,0,0,0.07407407407407408,253.11111111111114,0)" xlink:href="#as"/><use transform="matrix(0.07407407407407408,0,0,0.07407407407407408,272.2962962962963,0)" xlink:href="#ak"/><use transform="matrix(0.07407407407407408,0,0,0.07407407407407408,287.11111111111114,0)" xlink:href="#am"/><use transform="matrix(0.07407407407407408,0,0,0.07407407407407408,309.2592592592593,0)" xlink:href="#N"/><use transform="matrix(0.07407407407407408,0,0,0.07407407407407408,324.07407407407413,0)" xlink:href="#W"/><use transform="matrix(0.07407407407407408,0,0,0.07407407407407408,332.888888888889,0)" xlink:href="#at"/><use transform="matrix(0.07407407407407408,0,0,0.07407407407407408,350.6666666666667,0)" xlink:href="#O"/><use transform="matrix(0.07407407407407408,0,0,0.07407407407407408,358.07407407407413,0)" xlink:href="#U"/><use transform="matrix(0.07407407407407408,0,0,0.07407407407407408,366.888888888889,0)" xlink:href="#aa"/><use transform="matrix(0.07407407407407408,0,0,0.07407407407407408,372.74074074074076,0)" xlink:href="#aj"/><use transform="matrix(0.07407407407407408,0,0,0.07407407407407408,387.55555555555566,0)" xlink:href="#M"/><use transform="matrix(0.07407407407407408,0,0,0.07407407407407408,402.3703703703705,0)" xlink:href="#X"/><use transform="matrix(0.07407407407407408,0,0,0.07407407407407408,411.18518518518533,0)" xlink:href="#Y"/></g><g id="v"><use transform="matrix(0.07407407407407408,0,0,0.07407407407407408,0,0)" xlink:href="#V"/><use transform="matrix(0.07407407407407408,0,0,0.07407407407407408,13.333333333333336,0)" xlink:href="#N"/><use transform="matrix(0.07407407407407408,0,0,0.07407407407407408,28.148148148148152,0)" xlink:href="#ak"/><use transform="matrix(0.07407407407407408,0,0,0.07407407407407408,42.96296296296297,0)" xlink:href="#U"/><use transform="matrix(0.07407407407407408,0,0,0.07407407407407408,51.777777777777786,0)" xlink:href="#T"/><use transform="matrix(0.07407407407407408,0,0,0.07407407407407408,65.11111111111111,0)" xlink:href="#aq"/><use transform="matrix(0.07407407407407408,0,0,0.07407407407407408,79.92592592592592,0)" xlink:href="#R"/><use transform="matrix(0.07407407407407408,0,0,0.07407407407407408,99.11111111111111,0)" xlink:href="#S"/><use transform="matrix(0.07407407407407408,0,0,0.07407407407407408,113.92592592592592,0)" xlink:href="#T"/><use transform="matrix(0.07407407407407408,0,0,0.07407407407407408,127.25925925925925,0)" xlink:href="#O"/><use transform="matrix(0.07407407407407408,0,0,0.07407407407407408,134.66666666666669,0)" xlink:href="#S"/><use transform="matrix(0.07407407407407408,0,0,0.07407407407407408,149.4814814814815,0)" xlink:href="#U"/><use transform="matrix(0.07407407407407408,0,0,0.07407407407407408,158.2962962962963,0)" xlink:href="#V"/><use transform="matrix(0.07407407407407408,0,0,0.07407407407407408,171.62962962962965,0)" xlink:href="#ad"/><use transform="matrix(0.07407407407407408,0,0,0.07407407407407408,189.40740740740742,0)" xlink:href="#ae"/><use transform="matrix(0.07407407407407408,0,0,0.07407407407407408,202.74074074074076,0)" xlink:href="#at"/><use transform="matrix(0.07407407407407408,0,0,0.07407407407407408,220.51851851851856,0)" xlink:href="#ai"/><use transform="matrix(0.07407407407407408,0,0,0.07407407407407408,235.33333333333334,0)" xlink:href="#N"/><use transform="matrix(0.07407407407407408,0,0,0.07407407407407408,250.14814814814815,0)" xlink:href="#T"/><use transform="matrix(0.07407407407407408,0,0,0.07407407407407408,263.48148148148147,0)" xlink:href="#aa"/><use transform="matrix(0.07407407407407408,0,0,0.07407407407407408,269.3333333333333,0)" xlink:href="#ak"/><use transform="matrix(0.07407407407407408,0,0,0.07407407407407408,284.14814814814815,0)" xlink:href="#Q"/><use transform="matrix(0.07407407407407408,0,0,0.07407407407407408,290,0)" xlink:href="#aa"/><use transform="matrix(0.07407407407407408,0,0,0.07407407407407408,295.85185185185185,0)" xlink:href="#O"/><use transform="matrix(0.07407407407407408,0,0,0.07407407407407408,303.25925925925924,0)" xlink:href="#ae"/><use transform="matrix(0.07407407407407408,0,0,0.07407407407407408,316.59259259259255,0)" xlink:href="#W"/><use transform="matrix(0.07407407407407408,0,0,0.07407407407407408,325.4074074074074,0)" xlink:href="#at"/><use transform="matrix(0.07407407407407408,0,0,0.07407407407407408,343.18518518518516,0)" xlink:href="#O"/><use transform="matrix(0.07407407407407408,0,0,0.07407407407407408,350.59259259259255,0)" xlink:href="#U"/><use transform="matrix(0.07407407407407408,0,0,0.07407407407407408,359.4074074074074,0)" xlink:href="#aa"/><use transform="matrix(0.07407407407407408,0,0,0.07407407407407408,365.25925925925924,0)" xlink:href="#aj"/><use transform="matrix(0.07407407407407408,0,0,0.07407407407407408,380.0740740740741,0)" xlink:href="#M"/><use transform="matrix(0.07407407407407408,0,0,0.07407407407407408,394.8888888888889,0)" xlink:href="#X"/><use transform="matrix(0.07407407407407408,0,0,0.07407407407407408,403.70370370370375,0)" xlink:href="#Y"/></g><g id="w"><use transform="matrix(0.07407407407407408,0,0,0.07407407407407408,0,0)" xlink:href="#Z"/><use transform="matrix(0.07407407407407408,0,0,0.07407407407407408,14.814814814814817,0)" xlink:href="#aa"/><use transform="matrix(0.07407407407407408,0,0,0.07407407407407408,20.666666666666668,0)" xlink:href="#V"/><use transform="matrix(0.07407407407407408,0,0,0.07407407407407408,34.00000000000001,0)" xlink:href="#O"/><use transform="matrix(0.07407407407407408,0,0,0.07407407407407408,41.40740740740742,0)" xlink:href="#ab"/><use transform="matrix(0.07407407407407408,0,0,0.07407407407407408,56.962962962962976,0)" xlink:href="#R"/><use transform="matrix(0.07407407407407408,0,0,0.07407407407407408,76.14814814814815,0)" xlink:href="#S"/><use transform="matrix(0.07407407407407408,0,0,0.07407407407407408,90.96296296296299,0)" xlink:href="#T"/><use transform="matrix(0.07407407407407408,0,0,0.07407407407407408,104.29629629629633,0)" xlink:href="#O"/><use transform="matrix(0.07407407407407408,0,0,0.07407407407407408,111.70370370370374,0)" xlink:href="#S"/><use transform="matrix(0.07407407407407408,0,0,0.07407407407407408,126.51851851851858,0)" xlink:href="#U"/><use transform="matrix(0.07407407407407408,0,0,0.07407407407407408,135.33333333333337,0)" xlink:href="#ac"/></g></defs></g></svg>