<svg xmlns="http://www.w3.org/2000/svg" xmlns:xlink="http://www.w3.org/1999/xlink" xmlns:lucid="lucid" width="2006.73" height="1783"><g transform="translate(-7018.499999971911 701.5000000106103)" lucid:page-tab-id="0_0"><path d="M7600 746a6 6 0 0 1 6-6h875.46a6 6 0 0 1 6 6v328a6 6 0 0 1-6 6H7606a6 6 0 0 1-6-6z" stroke="#3a414a" stroke-width="3" fill="#fff"/><use xlink:href="#a" transform="matrix(1,0,0,1,7612,752) translate(91.30989583333337 175.10416666666669)"/><path d="M8456.27 106a6 6 0 0 1 6-6h555.46a6 6 0 0 1 6 6v209.82a6 6 0 0 1-6 6h-555.46a6 6 0 0 1-6-6z" stroke="#3a414a" stroke-width="3" fill="#fff"/><use xlink:href="#b" transform="matrix(1,0,0,1,8468.27157153177,112) translate(184.78645833333331 119.72916666666667)"/><path d="M7020 106a6 6 0 0 1 6-6h555.46a6 6 0 0 1 6 6v209.82a6 6 0 0 1-6 6H7026a6 6 0 0 1-6-6z" stroke="#3a414a" stroke-width="3" fill="#fff"/><use xlink:href="#c" transform="matrix(1,0,0,1,7032,112) translate(187.0390625 119.72916666666667)"/><path d="M8043.73 737V536.9a6 6 0 0 1 6-6h672a6 6 0 0 0 6-6V324.83" stroke="#3a414a" stroke-width="3" fill="none"/><path d="M8045.2 738.5h-2.95v-1.54h2.95zM8729.2 324.86h-2.95v-1.54h2.95z" stroke="#3a414a" stroke-width=".05" fill="#3a414a"/><path d="M7760-34a6 6 0 0 1 6-6h555.46a6 6 0 0 1 6 6v209.82a6 6 0 0 1-6 6H7766a6 6 0 0 1-6-6z" stroke="#3a414a" stroke-width="3" fill="#fff"/><use xlink:href="#d" transform="matrix(1,0,0,1,7772,-28) translate(120.046875 119.72916666666667)"/><path d="M7740-694a6 6 0 0 1 6-6h555.46a6 6 0 0 1 6 6v209.82a6 6 0 0 1-6 6H7746a6 6 0 0 1-6-6z" stroke="#3a414a" stroke-width="3" fill="#fff"/><use xlink:href="#e" transform="matrix(1,0,0,1,7752,-688) translate(183.70572916666669 119.72916666666667)"/><path d="M8043.73 737V536.9a6 6 0 0 0-6-6h-728a6 6 0 0 1-6-6V324.83" stroke="#3a414a" stroke-width="3" fill="none"/><path d="M8045.2 738.5h-2.95v-1.54h2.95zM7305.2 324.86h-2.95v-1.54h2.95z" stroke="#3a414a" stroke-width=".05" fill="#3a414a"/><path d="M7760 264.18a6 6 0 0 1 6-6h555.46a6 6 0 0 1 6 6V474a6 6 0 0 1-6 6H7766a6 6 0 0 1-6-6z" stroke="#3a414a" stroke-width="3" fill="#fff"/><use xlink:href="#f" transform="matrix(1,0,0,1,7772,270.1784886110613) translate(132.18229166666669 119.72916666666667)"/><path d="M7303.73 72.35V-183.1a6 6 0 0 1 6-6h708a6 6 0 0 0 6-6v-280.08" stroke="#3a414a" stroke-width="3" fill="none"/><path d="M7303.73 95.5l-12.5-21.65h25z" stroke="#3a414a" stroke-width="3" fill="#fff"/><path d="M8025.2-475.14h-2.95v-1.54h2.95z" stroke="#3a414a" stroke-width=".05" fill="#3a414a"/><path d="M8740 72.35V-183.1a6 6 0 0 0-6-6h-704.27a6 6 0 0 1-6-6v-280.08" stroke="#3a414a" stroke-width="3" fill="none"/><path d="M8740 95.5l-12.5-21.65h25z" stroke="#3a414a" stroke-width="3" fill="#fff"/><path d="M8025.2-475.14h-2.95v-1.54h2.95z" stroke="#3a414a" stroke-width=".05" fill="#3a414a"/><path d="M7732.35 70.9h-52.62a6 6 0 0 0-6 6v128a6 6 0 0 1-6 6h-77.27" stroke="#3a414a" stroke-width="3" fill="none"/><path d="M7755.5 70.9l-21.65 12.5v-25z" stroke="#3a414a" stroke-width="3" fill="#fff"/><path d="M7590.5 212.4h-1.54v-2.96h1.53z" stroke="#3a414a" stroke-width=".05" fill="#3a414a"/><path d="M8043.73 209.47v45.7" stroke="#3a414a" stroke-width="3" fill="none"/><path d="M8043.73 186.32l12.5 21.65h-25z" stroke="#3a414a" stroke-width="3" fill="#fff"/><path d="M8045.2 256.68h-2.95v-1.54h2.95z" stroke="#3a414a" stroke-width=".05" fill="#3a414a"/><path d="M8428.62 210.9h-30.76a6 6 0 0 1-6-6v-128a6 6 0 0 0-6-6h-30.75" stroke="#3a414a" stroke-width="3" fill="none"/><path d="M8451.77 210.9l-21.65 12.5v-25zM8331.96 70.9l21.65-12.5v25z" stroke="#3a414a" stroke-width="3" fill="#fff"/><path d="M8428.62 243.27h-30.76a6 6 0 0 0-6 6V363.1a6 6 0 0 1-6 6h-55.4" stroke="#3a414a" stroke-width="3" fill="none"/><path d="M8451.77 243.27l-21.65 12.5v-25z" stroke="#3a414a" stroke-width="3" fill="#fff"/><path d="M8330.5 370.56h-1.54v-2.95h1.54z" stroke="#3a414a" stroke-width=".05" fill="#3a414a"/><path d="M8593.62 97V-94a6 6 0 0 0-6-6h-1159.6a6 6 0 0 0-6 6V72.35" stroke="#3a414a" stroke-width="3" fill="none"/><path d="M8595.1 98.5h-2.95v-1.54h2.95z" stroke="#3a414a" stroke-width=".05" fill="#3a414a"/><path d="M7422 95.5l-12.5-21.65h25z" stroke="#3a414a" stroke-width="3" fill="#fff"/><path d="M8043.73 712.35V483" stroke="#3a414a" stroke-width="3" fill="none"/><path d="M8043.73 735.5l-12.5-21.65h25z" stroke="#3a414a" stroke-width="3" fill="#fff"/><path d="M8045.2 483.04h-2.95v-1.54h2.95z" stroke="#3a414a" stroke-width=".05" fill="#3a414a"/><defs><path d="M180 0v-1490h270l367 940c28 72 75 218 110 339 35-117 81-264 110-339l362-940h271V0h-187c2-448-5-837 7-1287-157 497-311 829-483 1287H842C666-458 514-784 354-1284c12 438 5 843 7 1284H180" id="g"/><path d="M628 24c-324 0-524-230-524-574 0-343 198-582 503-582 237 0 487 146 487 559v75H286c9 234 145 362 343 362 132 0 231-58 273-172l174 48C1024-91 857 24 628 24zM287-650h624c-17-190-120-322-304-322-192 0-309 151-320 322" id="h"/><path d="M577 24c-279 0-473-224-473-580 0-354 195-576 474-576 218 0 287 134 324 193h14v-551h180V0H922v-173h-20C865-111 790 24 577 24zm27-161c203 0 314-172 314-421 0-247-108-413-314-413-212 0-317 181-317 413 0 235 108 421 317 421" id="i"/><path d="M158 0v-1118h180V0H158zm91-1301c-68 0-125-53-125-119s57-119 125-119c69 0 126 53 126 119s-57 119-126 119" id="j"/><path d="M613 24c-304 0-509-231-509-576 0-350 205-580 509-580 216 0 392 114 453 309l-173 49c-33-115-133-197-280-197-223 0-326 196-326 419 0 220 103 415 326 415 150 0 252-85 285-206l172 49C1010-95 832 24 613 24" id="k"/><path d="M471 26C259 26 90-98 90-318c0-256 228-303 435-329 202-27 287-16 287-108 0-139-79-219-234-219-161 0-248 86-283 164l-173-57c86-203 278-265 451-265 150 0 419 46 419 395V0H815v-152h-12C765-73 660 26 471 26zm31-159c199 0 310-134 310-271v-155c-30 35-226 55-295 64-131 17-246 59-246 186 0 116 97 176 231 176" id="l"/><path d="M598-1118v154H368v674c0 100 37 144 132 144 23 0 62-6 92-12L629-6c-37 13-88 20-134 20-193 0-307-107-307-290v-688H20v-154h168v-266h180v266h230" id="m"/><path d="M613 24c-304 0-509-231-509-576 0-350 205-580 509-580 305 0 511 230 511 580 0 345-206 576-511 576zm0-161c226 0 329-195 329-415 0-222-103-419-329-419-223 0-326 196-326 419 0 220 103 415 326 415" id="n"/><path d="M338-670V0H158v-1118h173l1 207c72-158 192-221 342-221 226 0 378 139 378 422V0H872v-695c0-172-96-275-252-275-161 0-282 109-282 300" id="o"/><path d="M98-1322v-168h1126v168H757V0H567v-1322H98" id="p"/><path d="M158 0v-1118h174v172h12c41-113 157-188 290-188 26 0 70 2 91 3v181c-11-2-60-10-108-10-161 0-279 109-279 260V0H158" id="q"/><path d="M158 0v-1490h180v865h22l478-493h223L593-638 1096 0H865L456-523 338-412V0H158" id="r"/><path d="M611 442c-248 0-391-105-460-228l146-94c47 65 117 165 314 165 178 0 307-82 307-266v-224h-17C863-141 792-18 576-18c-268 0-472-195-472-546 0-346 197-568 476-568 216 0 288 133 326 193h17v-179h175V29c0 289-215 413-487 413zm-5-620c203 0 314-146 314-390 0-237-108-403-314-403-213 0-319 180-319 403 0 230 109 390 319 390" id="s"/><path d="M657 26c-323 0-524-166-541-416h195c15 169 171 246 346 246 202 0 356-106 356-265 5-203-294-238-475-293-239-73-380-191-380-389 0-252 224-419 512-419 294 0 499 171 508 396H992c-17-145-151-228-328-228-193 0-321 102-321 242 0 156 175 211 284 241l149 41c160 44 422 134 422 412 0 244-197 432-541 432" id="t"/><path d="M140 405l46-156c120 36 205 19 263-150l32-93L54-1118h197c107 313 237 620 324 950 87-331 219-637 326-950h196L606 167c-68 178-176 259-334 259-64 0-113-12-132-21" id="u"/><path d="M538 24C308 24 148-78 108-271l171-41c32 123 123 178 257 178 156 0 256-77 256-169 0-77-54-128-164-154l-186-44c-203-48-300-148-300-305 0-192 176-326 414-326 230 0 351 112 402 269l-163 42c-31-80-94-158-238-158-133 0-233 69-233 162 0 83 57 129 188 160l169 40c203 48 298 149 298 302 0 196-179 339-441 339" id="v"/><path d="M158 0v-1118h175l1 205c55-151 181-225 313-225 147 0 245 90 285 228 53-141 190-228 352-228 194 0 352 125 352 384V0h-181v-749c0-161-105-225-225-225-151 0-243 103-243 244V0H807v-767c0-124-93-207-219-207-131 0-250 92-250 270V0H158" id="w"/><g id="a"><use transform="matrix(0.026041666666666668,0,0,0.026041666666666668,0,0)" xlink:href="#g"/><use transform="matrix(0.026041666666666668,0,0,0.026041666666666668,48.177083333333336,0)" xlink:href="#h"/><use transform="matrix(0.026041666666666668,0,0,0.026041666666666668,79.27083333333334,0)" xlink:href="#i"/><use transform="matrix(0.026041666666666668,0,0,0.026041666666666668,111.92708333333334,0)" xlink:href="#j"/><use transform="matrix(0.026041666666666668,0,0,0.026041666666666668,124.84375,0)" xlink:href="#k"/><use transform="matrix(0.026041666666666668,0,0,0.026041666666666668,155.83333333333334,0)" xlink:href="#l"/><use transform="matrix(0.026041666666666668,0,0,0.026041666666666668,185.78125,0)" xlink:href="#m"/><use transform="matrix(0.026041666666666668,0,0,0.026041666666666668,203.22916666666666,0)" xlink:href="#j"/><use transform="matrix(0.026041666666666668,0,0,0.026041666666666668,216.1458333333333,0)" xlink:href="#n"/><use transform="matrix(0.026041666666666668,0,0,0.026041666666666668,248.12499999999997,0)" xlink:href="#o"/><use transform="matrix(0.026041666666666668,0,0,0.026041666666666668,275.9895833333333,0)" xlink:href="#p"/><use transform="matrix(0.026041666666666668,0,0,0.026041666666666668,307.3958333333333,0)" xlink:href="#q"/><use transform="matrix(0.026041666666666668,0,0,0.026041666666666668,327.4739583333333,0)" xlink:href="#l"/><use transform="matrix(0.026041666666666668,0,0,0.026041666666666668,357.421875,0)" xlink:href="#k"/><use transform="matrix(0.026041666666666668,0,0,0.026041666666666668,387.890625,0)" xlink:href="#r"/><use transform="matrix(0.026041666666666668,0,0,0.026041666666666668,417.1614583333333,0)" xlink:href="#j"/><use transform="matrix(0.026041666666666668,0,0,0.026041666666666668,430.078125,0)" xlink:href="#o"/><use transform="matrix(0.026041666666666668,0,0,0.026041666666666668,461.5885416666667,0)" xlink:href="#s"/><use transform="matrix(0.026041666666666668,0,0,0.026041666666666668,494.296875,0)" xlink:href="#t"/><use transform="matrix(0.026041666666666668,0,0,0.026041666666666668,528.515625,0)" xlink:href="#u"/><use transform="matrix(0.026041666666666668,0,0,0.026041666666666668,558.4895833333334,0)" xlink:href="#v"/><use transform="matrix(0.026041666666666668,0,0,0.026041666666666668,586.640625,0)" xlink:href="#m"/><use transform="matrix(0.026041666666666668,0,0,0.026041666666666668,603.5677083333333,0)" xlink:href="#h"/><use transform="matrix(0.026041666666666668,0,0,0.026041666666666668,634.6614583333333,0)" xlink:href="#w"/></g><path d="M180 0v-1490h510c348 0 508 209 508 474 0 266-160 477-507 477H370V0H180zm190-706h312c236 0 327-133 327-310 0-176-91-307-329-307H370v617" id="x"/><g id="b"><use transform="matrix(0.026041666666666668,0,0,0.026041666666666668,0,0)" xlink:href="#x"/><use transform="matrix(0.026041666666666668,0,0,0.026041666666666668,34.0625,0)" xlink:href="#l"/><use transform="matrix(0.026041666666666668,0,0,0.026041666666666668,64.01041666666667,0)" xlink:href="#m"/><use transform="matrix(0.026041666666666668,0,0,0.026041666666666668,81.45833333333334,0)" xlink:href="#j"/><use transform="matrix(0.026041666666666668,0,0,0.026041666666666668,94.37500000000001,0)" xlink:href="#h"/><use transform="matrix(0.026041666666666668,0,0,0.026041666666666668,125.46875,0)" xlink:href="#o"/><use transform="matrix(0.026041666666666668,0,0,0.026041666666666668,156.97916666666669,0)" xlink:href="#m"/></g><path d="M645 0H180v-1490h484c435 0 692 280 692 742 0 466-257 748-711 748zM370-168h263c363 0 539-218 539-580 0-358-176-574-521-574H370v1154" id="y"/><g id="c"><use transform="matrix(0.026041666666666668,0,0,0.026041666666666668,0,0)" xlink:href="#y"/><use transform="matrix(0.026041666666666668,0,0,0.026041666666666668,38.489583333333336,0)" xlink:href="#n"/><use transform="matrix(0.026041666666666668,0,0,0.026041666666666668,70.46875,0)" xlink:href="#k"/><use transform="matrix(0.026041666666666668,0,0,0.026041666666666668,100.9375,0)" xlink:href="#m"/><use transform="matrix(0.026041666666666668,0,0,0.026041666666666668,117.86458333333334,0)" xlink:href="#n"/><use transform="matrix(0.026041666666666668,0,0,0.026041666666666668,149.84375,0)" xlink:href="#q"/></g><path d="M158 418v-1536h174v179h20c37-59 106-193 324-193 279 0 474 222 474 576 0 356-194 580-473 580-213 0-288-135-325-197h-14v591H158zm492-555c209 0 317-186 317-421 0-232-105-413-317-413-206 0-314 166-314 413 0 249 111 421 314 421" id="z"/><g id="d"><use transform="matrix(0.026041666666666668,0,0,0.026041666666666668,0,0)" xlink:href="#x"/><use transform="matrix(0.026041666666666668,0,0,0.026041666666666668,33.776041666666664,0)" xlink:href="#h"/><use transform="matrix(0.026041666666666668,0,0,0.026041666666666668,64.86979166666666,0)" xlink:href="#q"/><use transform="matrix(0.026041666666666668,0,0,0.026041666666666668,84.94791666666666,0)" xlink:href="#v"/><use transform="matrix(0.026041666666666668,0,0,0.026041666666666668,113.09895833333334,0)" xlink:href="#k"/><use transform="matrix(0.026041666666666668,0,0,0.026041666666666668,143.56770833333331,0)" xlink:href="#q"/><use transform="matrix(0.026041666666666668,0,0,0.026041666666666668,164.47916666666666,0)" xlink:href="#j"/><use transform="matrix(0.026041666666666668,0,0,0.026041666666666668,177.39583333333331,0)" xlink:href="#z"/><use transform="matrix(0.026041666666666668,0,0,0.026041666666666668,210.05208333333331,0)" xlink:href="#m"/><use transform="matrix(0.026041666666666668,0,0,0.026041666666666668,227.49999999999997,0)" xlink:href="#j"/><use transform="matrix(0.026041666666666668,0,0,0.026041666666666668,240.41666666666663,0)" xlink:href="#n"/><use transform="matrix(0.026041666666666668,0,0,0.026041666666666668,272.3958333333333,0)" xlink:href="#o"/></g><g id="e"><use transform="matrix(0.026041666666666668,0,0,0.026041666666666668,0,0)" xlink:href="#x"/><use transform="matrix(0.026041666666666668,0,0,0.026041666666666668,33.776041666666664,0)" xlink:href="#h"/><use transform="matrix(0.026041666666666668,0,0,0.026041666666666668,64.86979166666666,0)" xlink:href="#q"/><use transform="matrix(0.026041666666666668,0,0,0.026041666666666668,84.94791666666666,0)" xlink:href="#v"/><use transform="matrix(0.026041666666666668,0,0,0.026041666666666668,113.09895833333334,0)" xlink:href="#n"/><use transform="matrix(0.026041666666666668,0,0,0.026041666666666668,145.078125,0)" xlink:href="#o"/></g><g id="f"><use transform="matrix(0.026041666666666668,0,0,0.026041666666666668,0,0)" xlink:href="#g"/><use transform="matrix(0.026041666666666668,0,0,0.026041666666666668,48.177083333333336,0)" xlink:href="#h"/><use transform="matrix(0.026041666666666668,0,0,0.026041666666666668,79.27083333333334,0)" xlink:href="#i"/><use transform="matrix(0.026041666666666668,0,0,0.026041666666666668,111.92708333333334,0)" xlink:href="#j"/><use transform="matrix(0.026041666666666668,0,0,0.026041666666666668,124.84375,0)" xlink:href="#k"/><use transform="matrix(0.026041666666666668,0,0,0.026041666666666668,155.83333333333334,0)" xlink:href="#l"/><use transform="matrix(0.026041666666666668,0,0,0.026041666666666668,185.78125,0)" xlink:href="#m"/><use transform="matrix(0.026041666666666668,0,0,0.026041666666666668,203.22916666666666,0)" xlink:href="#j"/><use transform="matrix(0.026041666666666668,0,0,0.026041666666666668,216.1458333333333,0)" xlink:href="#n"/><use transform="matrix(0.026041666666666668,0,0,0.026041666666666668,248.12499999999997,0)" xlink:href="#o"/></g></defs></g></svg>